<svg width="24" height="24" viewBox="0 0 20 20" fill="currentColor" xmlns="http://www.w3.org/2000/svg"><g clip-path="url(#BubbleEllipsisRightFill_clip0)"><g opacity="0.9" filter="url(#BubbleEllipsisRightFill_filter0_d)"><path fill-rule="evenodd" clip-rule="evenodd" d="M16.0393 14.7137C17.75 13 18.75 11.215 18.75 9.13662C18.75 4.91897 14.8887 1.49997 10.125 1.49997C5.36129 1.49997 1.5 4.91897 1.5 9.13675C1.5 13.3545 5.48622 16.25 10.25 16.25V17.6487C10.25 18.0919 10.7095 18.3771 11.0992 18.1659C12.3166 17.5062 14.5725 16.183 16.0393 14.7137ZM5.93527 8.10679C6.61608 8.10679 7.16797 8.65471 7.16797 9.32962C7.16797 10.0059 6.61608 10.5538 5.93527 10.5538C5.2556 10.5538 4.70368 10.0059 4.70368 9.32962C4.70368 8.65471 5.2556 8.10679 5.93527 8.10679ZM11.3572 9.32962C11.3572 8.65471 10.8055 8.10679 10.125 8.10679C9.44459 8.10679 8.89289 8.65471 8.89289 9.32962C8.89292 10.0059 9.44462 10.5538 10.125 10.5538C10.8055 10.5538 11.3572 10.0059 11.3572 9.32962ZM14.3146 8.10679C14.9953 8.10679 15.5464 8.65471 15.5464 9.32962C15.5464 10.0059 14.9953 10.5538 14.3146 10.5538C13.6339 10.5538 13.082 10.0059 13.0821 9.32962C13.0821 8.65471 13.6339 8.10679 14.3146 8.10679Z"></path></g><path opacity="0.1" fill-rule="evenodd" clip-rule="evenodd" d="M10.25 16.2499C10.25 16.2499 15.0278 15.8807 17.025 13.3234C15.0278 16.1364 13.0307 17.6708 11.2831 18.1822C9.53561 18.6937 10.25 16.2499 10.25 16.2499Z" fill="url(#BubbleEllipsisRightFill_paint0_linear)"></path></g><defs><filter id="BubbleEllipsisRightFill_filter0_d" x="0.5" y="1.49997" width="19.25" height="18.737" filterUnits="userSpaceOnUse" color-interpolation-filters="sRGB"><feFlood flood-opacity="0" result="BackgroundImageFix"></feFlood><feColorMatrix in="SourceAlpha" type="matrix" values="0 0 0 0 0 0 0 0 0 0 0 0 0 0 0 0 0 0 127 0"></feColorMatrix><feOffset dy="1"></feOffset><feGaussianBlur stdDeviation="0.5"></feGaussianBlur><feColorMatrix type="matrix" values="0 0 0 0 0 0 0 0 0 0 0 0 0 0 0 0 0 0 0.12 0"></feColorMatrix><feBlend mode="normal" in2="BackgroundImageFix" result="effect1_dropShadow"></feBlend><feBlend mode="normal" in="SourceGraphic" in2="effect1_dropShadow" result="shape"></feBlend></filter><linearGradient id="BubbleEllipsisRightFill_paint0_linear" x1="8.50426" y1="15.6957" x2="9.29499" y2="18.1805" gradientUnits="userSpaceOnUse"><stop></stop><stop offset="1" stop-opacity="0.01"></stop></linearGradient><clipPath id="BubbleEllipsisRightFill_clip0"><rect width="20" height="20" fill="white"></rect></clipPath></defs></svg>