<svg width="32" height="32" viewBox="0 0 32 32" fill="currentColor" xmlns="http://www.w3.org/2000/svg"><path fill-rule="evenodd" clip-rule="evenodd" d="M22.1571 13.8359L21.9247 12.3786C21.4686 9.51917 18.9876 7.3335 16 7.3335C12.6863 7.3335 10 10.0197 9.99996 13.3334L10.0011 15.2304L8.11578 15.3398C6.19293 15.4513 4.66663 17.0482 4.66663 19.0002C4.66663 21.0252 6.30825 22.6668 8.33329 22.6668H15.3333V17.0813L14.1785 18.236C13.9182 18.4964 13.4961 18.4964 13.2357 18.236L12.7643 17.7646C12.504 17.5043 12.504 17.0822 12.7643 16.8218L15.862 13.7242C16.1223 13.4638 16.5444 13.4638 16.8048 13.7242L19.9024 16.8218C20.1628 17.0822 20.1628 17.5043 19.9024 17.7646L19.431 18.236C19.1706 18.4964 18.7485 18.4964 18.4882 18.236L17.3333 17.0811V22.6668H23C25.3932 22.6668 27.3333 20.7267 27.3333 18.3335C27.3333 16.151 25.7179 14.3423 23.6181 14.0437L22.1571 13.8359ZM8.33329 24.6668H15.3333H17.3333H23C26.4978 24.6668 29.3333 21.8313 29.3333 18.3335C29.3333 15.1411 26.9714 12.5005 23.8997 12.0636C23.2913 8.24881 19.9861 5.3335 16 5.3335C11.5817 5.3335 7.99996 8.91522 7.99996 13.3335L7.99996 13.3431C5.0255 13.5157 2.66663 15.9824 2.66663 19.0002C2.66663 22.1298 5.20368 24.6668 8.33329 24.6668Z"></path></svg>